<svg width="32" height="34" viewBox="0 0 32 34" fill="none" xmlns="http://www.w3.org/2000/svg">
<path fill-rule="evenodd" clip-rule="evenodd" d="M18.1047 33.7094C18.4708 33.6774 18.7808 33.4221 18.8824 33.0651L20.3949 29.1839C20.7588 27.9051 20.3764 27.3629 19.8441 26.1458C19.5684 25.5153 19.3103 24.92 19.0856 24.4018C18.6883 23.4852 18.3956 22.81 18.2951 22.6084L12.4624 10.4133C12.0496 9.54135 11.6501 8.77439 11.2986 8.09941C9.77519 5.17428 9.1515 3.97674 12.241 3.45152C13.2238 3.30284 13.6805 2.82272 13.6219 2.13602C13.5632 1.44932 12.97 1.06085 12.0437 1.14173L1.11235 2.09604C-0.43162 2.23082 -0.37382 4.36412 1.32033 4.53069C2.6386 4.66717 4.45541 6.26957 6.65705 10.9201L16.9185 32.9325C17.2135 33.4727 17.6107 33.7525 18.1047 33.7094Z" fill="#C3E4A1"/>
<path d="M29.458 11.8821C29.9973 11.2504 31.4728 8.94684 31.432 7.11442C31.432 2.93548 27.9426 -0.0915307 23.8253 0.00211428C19.708 0.0957593 16.4382 3.69067 16.5219 7.45354C16.6057 11.2164 20.0113 14.1909 24.1286 14.0973C24.2732 14.094 24.4168 14.087 24.5593 14.0763C24.5285 14.2173 24.4938 14.3636 24.4549 14.5151C24.2208 15.4272 23.3511 17.5242 23.2778 17.7294C22.882 18.598 24.0386 19.3229 24.6321 18.5782L29.458 11.8821Z" fill="#C3E4A1"/>
</svg>
